<svg xmlns="http://www.w3.org/2000/svg" xmlns:xlink="http://www.w3.org/1999/xlink" viewBox="0,0,256,256" width="48px" height="48px" fill-rule="nonzero"><g fill="none" fill-rule="nonzero" stroke="none" stroke-width="1" stroke-linecap="butt" stroke-linejoin="miter" stroke-miterlimit="10" stroke-dasharray="" stroke-dashoffset="0" font-family="none" font-weight="none" font-size="none" text-anchor="none" style="mix-blend-mode: normal"><g transform="scale(5.33333,5.33333)"><path d="M11,7h10l-1,4h3l-2,5h4l2,-5h3l1,-4h10l-6,26h-32z" fill="#ab4ac3"></path><path d="M40.754,6h-0.754h-9h-0.74l-1.182,5h-1.578h-1.299l-0.509,1.854l-4.907,-6.854h-0.785h-7.266h-1.734h-0.359h-0.01l-8.631,27l8.908,9h0.229h2.004h7.982l1.523,-6.172l1.052,1.172h2.62l4.104,5h0.178h1.784h8.538l5.078,-25zM31.333,8h8.133l-1.808,8h-3.754l1.086,-4.402c0.029,-0.146 -0.009,-0.299 -0.104,-0.415c-0.094,-0.116 -0.237,-0.183 -0.386,-0.183h-3.908zM27.5,11.916v0.084h6.39l-1.012,4h-6.581l1.087,-3.66zM18.887,11h-7.715l0.938,-3h7.688zM12.334,33.042h-7.965l-0.041,-0.042h-0.031l3.125,-10h1.915l-1.817,6.362c-0.043,0.151 -0.014,0.313 0.081,0.438c0.094,0.127 0.242,0.2 0.399,0.2h5.217zM9.52,26h4.858l-0.871,3h-4.844zM25.094,33l2.628,-11h-2.094h-1.121l-1.352,5h-5.755l1.354,-5h-3.215l-0.871,3h-4.862l0.675,-2.362c0.043,-0.151 0.014,-0.313 -0.081,-0.438c-0.095,-0.127 -0.243,-0.2 -0.4,-0.2h-2.266l3.125,-10h7.725h0.416h2.292l-1.354,5h5.062h1h11.432l-3.615,16z" fill="#263238"></path><path d="M18.841,40l-6.507,-7h-8.006l6.854,7zM38.801,40l-4.985,-7h-8.722l5.67,7zM23.036,33h-0.036l1.117,-4.676l-1.033,-1.324h-5.6l6.587,8.001h0.607z" fill="#ffa5f0"></path></g></g></svg>